<svg width="37" height="37" viewBox="0 0 37 37" fill="none" xmlns="http://www.w3.org/2000/svg">
<path d="M33.4129 0.361206H3.92593C2.12743 0.361206 0.669434 1.81921 0.669434 3.6177V33.1046C0.669434 34.9032 2.12743 36.3612 3.92593 36.3612H33.4128C35.2114 36.3612 36.6694 34.9032 36.6694 33.1046V3.6177C36.6694 1.81921 35.2114 0.361206 33.4129 0.361206ZM11.8094 31.446C11.8094 31.9694 11.3851 32.3937 10.8617 32.3937H6.8276C6.30419 32.3937 5.87992 31.9694 5.87992 31.446V14.5353C5.87992 14.0119 6.30419 13.5876 6.8276 13.5876H10.8617C11.3851 13.5876 11.8094 14.0119 11.8094 14.5353V31.446ZM8.84464 11.9935C6.72808 11.9935 5.01224 10.2777 5.01224 8.16114C5.01224 6.04459 6.72808 4.32875 8.84464 4.32875C10.9612 4.32875 12.677 6.04459 12.677 8.16114C12.677 10.2777 10.9613 11.9935 8.84464 11.9935ZM32.8913 31.5223C32.8913 32.0035 32.5012 32.3937 32.02 32.3937H27.6911C27.2099 32.3937 26.8198 32.0035 26.8198 31.5223V23.5903C26.8198 22.407 27.1668 18.405 23.7274 18.405C21.0596 18.405 20.5184 21.1442 20.4098 22.3735V31.5223C20.4098 32.0035 20.0197 32.3937 19.5384 32.3937H15.3517C14.8705 32.3937 14.4803 32.0035 14.4803 31.5223V14.459C14.4803 13.9778 14.8705 13.5876 15.3517 13.5876H19.5384C20.0196 13.5876 20.4098 13.9778 20.4098 14.459V15.9343C21.399 14.4497 22.8692 13.3039 25.9994 13.3039C32.931 13.3039 32.8913 19.7797 32.8913 23.3379V31.5223Z" fill="#0077B7"/>
</svg>
